<svg width="28" height="28" viewBox="0 0 28 28" fill="none" xmlns="http://www.w3.org/2000/svg">
<path fill-rule="evenodd" clip-rule="evenodd" d="M0.358887 13.6411C0.358887 6.10974 6.46648 0 13.9999 0C21.5333 0 27.6409 6.10974 27.6409 13.6411C27.6409 21.1723 21.5333 27.282 13.9999 27.282C6.46648 27.282 0.358887 21.1723 0.358887 13.6411ZM21.0035 10.8267C21.0035 10.6759 20.9992 10.5251 20.9927 10.3744C21.6762 9.88617 22.27 9.26874 22.7388 8.56512C22.1113 8.84515 21.4371 9.0318 20.7292 9.11798C21.4515 8.68719 22.0058 7.99799 22.2678 7.1795C21.5915 7.58154 20.8427 7.87592 20.0465 8.02667C19.4075 7.35181 18.4993 6.92822 17.4927 6.92822C15.5607 6.92822 13.9942 8.49335 13.9942 10.4246C13.9942 10.6974 14.0258 10.9631 14.0853 11.2216C11.1777 11.0779 8.5995 9.68512 6.87427 7.5672C6.57345 8.08411 6.40042 8.67999 6.40042 9.32617C6.40042 10.5395 7.01858 11.6093 7.95765 12.2339C7.38401 12.2195 6.84412 12.0616 6.37314 11.7959C6.37254 11.8019 6.37219 11.8092 6.37199 11.8167C6.37171 11.827 6.37171 11.8378 6.37171 11.8462C6.37171 13.5405 7.57786 14.9549 9.17817 15.2708C8.88453 15.3497 8.57581 15.3928 8.25704 15.3928C8.0316 15.3928 7.81191 15.3713 7.59868 15.3282C8.04381 16.7211 9.3354 17.7333 10.8668 17.7621C9.66924 18.7026 8.16083 19.2554 6.52176 19.2554C6.2396 19.2554 5.96104 19.241 5.6875 19.2123C7.2354 20.2031 9.07478 20.7846 11.0499 20.7846C17.4841 20.7846 21.0035 15.4503 21.0035 10.8267Z" fill="#4F60A4"/>
</svg>
