<svg width="28" height="28" viewBox="0 0 28 28" fill="none" xmlns="http://www.w3.org/2000/svg">
<path fill-rule="evenodd" clip-rule="evenodd" d="M14 0C6.46875 0 0.359009 6.10974 0.359009 13.6411C0.359009 21.1723 6.46875 27.282 14 27.282C21.5313 27.282 27.6411 21.1723 27.6411 13.6411C27.6411 6.10974 21.5313 0 14 0ZM10.0944 6.53345H17.9057C19.6718 6.53345 21.1077 7.96936 21.1077 9.73547V17.5468C21.1077 19.3129 19.6718 20.7488 17.9057 20.7488H10.0944C8.32823 20.7488 6.89233 19.3129 6.89233 17.5468V9.73547C6.89233 7.96936 8.32823 6.53345 10.0944 6.53345ZM9.73547 13.6411C9.73547 15.9888 11.6524 17.9057 14.0001 17.9057C16.3478 17.9057 18.2647 15.9888 18.2647 13.6411C18.2647 11.2934 16.3478 9.37646 14.0001 9.37646C11.6524 9.37646 9.73547 11.2934 9.73547 13.6411ZM18.5302 10.0871C17.9918 10.0871 17.5538 9.64917 17.5538 9.11072C17.5538 8.5722 17.9918 8.13428 18.5302 8.13428C19.0687 8.13428 19.5067 8.5722 19.5067 9.11072C19.5067 9.64917 19.0687 10.0871 18.5302 10.0871ZM11.157 13.6409C11.157 12.0758 12.4349 10.7979 14.0001 10.7979C15.5652 10.7979 16.8431 12.0758 16.8431 13.6409C16.8431 15.2061 15.5652 16.484 14.0001 16.484C12.4349 16.484 11.157 15.2061 11.157 13.6409ZM17.9057 22.1631C20.4544 22.1631 22.5221 20.0954 22.5221 17.5467V9.73541C22.5221 7.18671 20.4544 5.11182 17.9057 5.11182H10.0944C7.5457 5.11182 5.47083 7.18671 5.47083 9.73541V17.5467C5.47083 20.0954 7.5457 22.1631 10.0944 22.1631H17.9057Z" fill="#4267B2"/>
</svg>
